<?xml version="1.0" encoding="utf-8"?>
<!-- Generator: Adobe Illustrator 24.0.1, SVG Export Plug-In . SVG Version: 6.00 Build 0)  -->
<svg version="1.1" xmlns="http://www.w3.org/2000/svg" xmlns:xlink="http://www.w3.org/1999/xlink" x="0px" y="0px"
	 viewBox="0 0 700 297.5" style="enable-background:new 0 0 700 297.5;" xml:space="preserve">
<style type="text/css">
	.st0{fill:#1F1F1F;}
	.st1{fill:#DB1832;}
	.st2{display:none;}
	.st3{display:inline;fill:#FFFFFF;}
	.st4{fill:#FFFFFF;}
</style>
<g id="Leaf_1">
	<path class="st0" d="M432.9,81.1c0-35.7-29-64.7-64.7-64.7H221.3v101.8c0,33.5,27.2,60.7,60.7,60.7h95.9V124h54.9"/>
</g>
<g id="Leaf_2">
	<path class="st1" d="M606.3,124H432.9V179h-54.9v46.9c0,33.5,27.2,60.7,60.7,60.7H671v-97.8C671,153,642,124,606.3,124z"/>
</g>
<g id="C">
	<g>
		<path class="st0" d="M336.8,197.7h-10c-6.9,0-12.6,5.7-12.6,12.6v15.6c0,6.9,5.3,11.7,12.6,12.9l7,1.5c2.5,0.5,4,2.1,4,4.2v14
			c0,2.1-1.4,4.3-4,4.3h-4c-2.6,0-4-2.2-4-4.3v-7.2h-11.6v9.3c0,6.9,5.7,12.6,12.6,12.6h10c6.9,0,12.6-5.7,12.6-12.6V242
			c0-7-5.4-11.7-12.6-13l-7-1.4c-2.5-0.4-4-2.1-4-4.2v-11c0-2.1,1.3-4.1,4-4.1h4.1c2.6,0,4,2,4,4.1v7.2h11.6v-9.3
			C349.4,203.5,343.7,197.7,336.8,197.7z"/>
		<path class="st0" d="M291.8,197.7h-10c-6.9,0-12.6,5.7-12.6,12.6v15.6c0,6.9,5.3,11.7,12.6,12.9l7,1.5c2.5,0.5,4,2.1,4,4.2v14
			c0,2.1-1.4,4.3-4,4.3h-4.1c-2.6,0-4-2.2-4-4.3v-7.2h-11.6v9.3c0,6.9,5.7,12.6,12.6,12.6h10c6.9,0,12.6-5.7,12.6-12.6V242
			c0-7-5.4-11.7-12.6-13l-7-1.4c-2.5-0.4-4-2.1-4-4.2v-11c0-2.1,1.3-4.1,4-4.1h4.1c2.6,0,4,2,4,4.1v7.2h11.6v-9.3
			C304.4,203.5,298.8,197.7,291.8,197.7z"/>
		<path class="st0" d="M259.4,215.4v-5.1c0-6.9-5.8-12.7-12.8-12.7h-10c-6.9,0-12.6,5.7-12.6,12.7v9.3h11.6v-7.3
			c0-2.1,1.3-4.2,3.9-4.2h4.1c2.6,0,3.9,2.2,3.9,4.2v10.9c0,2.1-1.5,3.6-3.9,4.2l-7,1.4c-7.2,1.3-12.6,6-12.6,13v18.8
			c0,6.9,5.7,12.6,12.6,12.6h22.8v-60.9V215.4z M247.6,258.6c0,2.1-1.4,4.1-3.9,4.1h-4.1c-2.6,0-3.9-2.1-3.9-4.1v-14.1
			c0-2.1,1.5-3.8,3.9-4.2l7-1.5c0.4,0,0.6-0.2,1-0.2V258.6z"/>
		<path class="st0" d="M203,197.7h-22.3v75.4h11.6v-31.4H203c6.9,0,12.6-5.8,12.6-12.7v-18.8C215.5,203.4,209.9,197.7,203,197.7z
			 M203.9,227c0,2.1-1.4,4.3-3.9,4.3h-7.8v-23.1h7.8c2.6,0,3.9,2.2,3.9,4.3V227z"/>
		<polygon class="st0" points="142.7,239.5 129.3,197.7 117.1,197.7 117.1,273.1 128.7,273.1 128.7,227.5 139.4,258.6 146,258.6 
			156.7,227.5 156.7,273.1 168.4,273.1 168.4,197.7 156.2,197.7 		"/>
		<path class="st0" d="M94.7,197.7H84.5c-6.9,0-12.6,5.7-12.6,12.7v50.1c0,6.9,5.7,12.6,12.6,12.6h10.2c6.9,0,12.6-5.7,12.6-12.6
			v-50.1C107.3,203.5,101.6,197.7,94.7,197.7z M95.7,258.5c0,2.1-1.4,4.3-3.9,4.3h-4.3c-2.6,0-3.9-2.2-3.9-4.3v-46
			c0-2.1,1.3-4.3,3.9-4.3h4.3c2.6,0,3.9,2.2,3.9,4.3V258.5z"/>
		<path class="st0" d="M51.7,197.7h-10c-6.9,0-12.6,5.7-12.6,12.7v50.1c0,6.9,5.7,12.6,12.6,12.6h10c6.9,0,12.6-5.7,12.6-12.6v-9.2
			H52.7v7.1c0,2.1-1.4,4.3-3.9,4.3h-4.1c-2.6,0-4-2.2-4-4.3v-46c0-2.1,1.3-4.3,4-4.3h4.1c2.6,0,3.9,2.2,3.9,4.3v7.2h11.6v-9.3
			C64.3,203.5,58.7,197.7,51.7,197.7z"/>
	</g>
</g>
<g id="Plus">
	<g class="st2">
		<path class="st3" d="M583.6,179.6h-8.2c-5.7,0-10.3,4.7-10.3,10.3v12.8c0,5.7,4.3,9.6,10.3,10.6l5.8,1.2c2,0.4,3.3,1.7,3.3,3.4
			v11.4c0,1.7-1.1,3.5-3.3,3.5h-3.4c-2.2,0-3.3-1.8-3.3-3.5v-5.9h-9.5v7.6c0,5.7,4.6,10.3,10.3,10.3h8.2c5.7,0,10.3-4.6,10.3-10.3
			v-15.2c0-5.8-4.4-9.6-10.3-10.7l-5.8-1.1c-2-0.3-3.3-1.7-3.3-3.4v-9.1c0-1.7,1-3.4,3.3-3.4h3.4c2.1,0,3.3,1.6,3.3,3.4v5.9h9.5
			v-7.6C593.9,184.3,589.3,179.6,583.6,179.6z"/>
		<path class="st3" d="M547.7,229.4c0,1.7-1.1,3.5-3.2,3.5h-3.4c-2.2,0-3.3-1.8-3.3-3.5v-49.8h-9.5v51.6c0,5.7,4.6,10.3,10.3,10.3
			h8.2c5.7,0,10.3-4.6,10.3-10.3v-51.6h-9.5L547.7,229.4L547.7,229.4z"/>
		<polygon class="st3" points="509.4,179.6 499.9,179.6 499.9,241.5 522.8,241.5 522.8,232.9 509.4,232.9 		"/>
		<path class="st3" d="M482.5,179.6h-18.3v61.9h9.5v-25.7h8.8c5.7,0,10.3-4.8,10.3-10.4v-15.4C492.8,184.2,488.2,179.6,482.5,179.6z
			 M483.3,203.6c0,1.7-1.1,3.5-3.2,3.5h-6.4v-18.9h6.4c2.1,0,3.2,1.8,3.2,3.5V203.6z"/>
	</g>
	<g>
		<path class="st4" d="M594.1,178.3h-8.7c-6,0-11,5-11,11v13.6c0,6,4.6,10.2,11,11.3l6.1,1.3c2.1,0.5,3.5,1.8,3.5,3.7v12.2
			c0,1.8-1.2,3.7-3.5,3.7h-3.6c-2.3,0-3.5-1.9-3.5-3.7V225h-10.1v8.1c0,6,4.9,11,11,11h8.7c6,0,11-4.9,11-11V217
			c0-6.1-4.7-10.2-11-11.4l-6.1-1.2c-2.1-0.3-3.5-1.8-3.5-3.7v-9.6c0-1.8,1.1-3.6,3.5-3.6h3.6c2.2,0,3.5,1.7,3.5,3.6v6.3h10.1v-8.1
			C605.1,183.3,600.2,178.3,594.1,178.3z"/>
		<path class="st4" d="M556.1,231.3c0,1.8-1.2,3.7-3.4,3.7h-3.6c-2.3,0-3.5-1.9-3.5-3.7v-52.9h-10.1v54.8c0,6,4.9,11,11,11h8.7
			c6,0,11-4.9,11-11v-54.8H556L556.1,231.3L556.1,231.3z"/>
		<polygon class="st4" points="515.4,178.3 505.3,178.3 505.3,244.1 529.6,244.1 529.6,234.9 515.4,234.9 		"/>
		<path class="st4" d="M486.7,178.3h-19.5v65.7h10.1v-27.3h9.4c6,0,11-5.1,11-11v-16.4C497.7,183.3,492.8,178.3,486.7,178.3z
			 M487.6,203.8c0,1.8-1.2,3.7-3.4,3.7h-6.8v-20.1h6.8c2.2,0,3.4,1.9,3.4,3.7V203.8z"/>
	</g>
</g>
</svg>
